<svg xmlns="http://www.w3.org/2000/svg" xmlns:xlink="http://www.w3.org/1999/xlink" fill="none" version="1.1" width="136.140625" height="178.00003051757812" viewBox="0 0 136.140625 178.00003051757812"><defs><linearGradient x1="0.8546710014343262" y1="0.8034360408782959" x2="0.8333213329315186" y2="0" id="master_svg0_152_07094"><stop offset="0%" stop-color="#FFB74D" stop-opacity="1"/><stop offset="100.00011920928955%" stop-color="#EA5F2A" stop-opacity="1"/></linearGradient><linearGradient x1="0.5" y1="0.6703797578811646" x2="0.29553526639938354" y2="-0.4002380669116974" id="master_svg1_152_07102"><stop offset="0%" stop-color="#FFB74D" stop-opacity="1"/><stop offset="100.00028610229492%" stop-color="#CB3800" stop-opacity="1"/></linearGradient><linearGradient x1="0.9371286034584045" y1="0" x2="0.09386466443538666" y2="0.9283419847488403" id="master_svg2_152_07098"><stop offset="0%" stop-color="#FF500F" stop-opacity="1"/><stop offset="99.9998927116394%" stop-color="#D9773B" stop-opacity="1"/></linearGradient><linearGradient x1="0.8452901840209961" y1="0.8194817900657654" x2="0.8502801060676575" y2="0.059159498661756516" id="master_svg3_152_07115"><stop offset="0%" stop-color="#00B2ED" stop-opacity="1"/><stop offset="100.00021457672119%" stop-color="#002FED" stop-opacity="1"/></linearGradient><linearGradient x1="0.5" y1="0" x2="0.5" y2="1" id="master_svg4_152_07111"><stop offset="0%" stop-color="#143AD4" stop-opacity="1"/><stop offset="69.9999988079071%" stop-color="#00B2ED" stop-opacity="1"/></linearGradient><linearGradient x1="0.3482012450695038" y1="1.2638264894485474" x2="0.448713093996048" y2="0.15451215207576752" id="master_svg5_152_07107"><stop offset="0%" stop-color="#0267E4" stop-opacity="1"/><stop offset="100%" stop-color="#3054E7" stop-opacity="1"/></linearGradient></defs><g><g><g><g><path d="M57.198625,24.5879093875885L34.508025,53.6219093875885C33.382425,55.0620093875885,33.377125,57.0659093875885,34.494924999999995,58.5119093875885L35.973425,60.424409387588504C37.610125,62.5415093875885,40.846424999999996,62.5410093875885,42.482425,60.4234093875885L54.306425,45.1182093875885L54.306425,73.1488093875885C54.306425,80.7888093875885,44.503525,84.1301093875885,39.702425000000005,78.1264093875885L22.477325,56.5869093875885L60.905025,8.5339393875885C62.301725,6.787479387588501,61.995325,4.257429387588501,60.220825,2.882899387588501L58.614225,1.638500387588501C56.839725,0.26397538758850103,54.268925,0.565484387588501,52.872325,2.311939387588501L12.454305,52.8537093875885Q11.140625000000181,54.4964093875885,11.140625000000181,56.5869093875885Q11.140624512567,58.6773093875885,12.454305,60.3201093875885L54.488425,112.8824093875885Q55.657125,114.3444093875885,57.476925,114.8144093875885Q59.128525,115.2404093875885,60.746325,114.6894093875885Q62.364025,114.1374093875885,63.393925,112.7974093875885Q64.528625,111.3204093875885,64.528625,109.4604093875885L64.528625,27.041309387588502C64.528625,23.1988093875885,59.579025,21.5421093875885,57.198625,24.5879093875885Z" fill-rule="evenodd" fill="url(#master_svg0_152_07094)" fill-opacity="1"/></g><g><path d="M54.30641174316406,96.32277543678283C54.30641174316406,96.36647543678284,54.30665280216406,96.41017543678284,54.30713491116406,96.45387543678284L54.488411743164065,112.88267543678283Q55.657151743164064,114.34417543678283,57.47689174316406,114.81407543678284Q59.128541743164064,115.24047543678283,60.74630174316406,114.68907543678284Q62.364061743164065,114.13767543678284,63.39394174316406,112.79727543678284Q64.52861174316406,111.32037543678284,64.52861174316406,109.46057543678283L64.52861174316406,31.938875436782837L54.30641174316406,45.118175436782835L54.30641174316406,96.32277543678283Z" fill="url(#master_svg1_152_07102)" fill-opacity="1"/></g><g><path d="M15.97312593460083,48.45351654014588L22.47734593460083,56.58691654014587L60.90512593460083,8.533946540145873C62.30172593460083,6.787486540145874,61.99532593460083,4.257436540145874,60.22082593460083,2.882906540145874L58.61422593460083,1.638508540145874C56.83972593460083,0.2639825401458741,54.26892593460083,0.565491540145874,52.87232593460083,2.311946540145874L15.97312593460083,48.45351654014588Z" fill="url(#master_svg2_152_07098)" fill-opacity="1"/></g></g><g transform="matrix(-1,0,0,-1,252.28126525878906,228.44723510742188)"><g><path d="M172.1986021118164,138.03511755371093L149.5080021118164,167.06911755371095C148.38240211181642,168.50921755371093,148.3771021118164,170.51311755371094,149.4949021118164,171.95911755371094L150.9734021118164,173.87161755371093C152.61010211181642,175.98871755371093,155.84640211181642,175.98821755371094,157.4824021118164,173.87061755371093L169.3064021118164,158.56541755371094L169.3064021118164,186.59601755371094C169.3064021118164,194.23601755371095,159.5035021118164,197.57731755371094,154.7024021118164,191.57361755371093L137.4773021118164,170.03411755371093L175.9050021118164,121.98114755371094C177.3017021118164,120.23468755371094,176.99530211181641,117.70463755371094,175.2208021118164,116.33010755371093L173.6142021118164,115.08570855371094C171.8397021118164,113.71118355371094,169.2689021118164,114.01269255371093,167.8723021118164,115.75914755371093L127.45428211181641,166.30091755371095Q126.14060211181659,167.94361755371094,126.14060211181659,170.03411755371093Q126.14060162438341,172.12451755371094,127.45428211181641,173.76731755371094L169.4884021118164,226.32961755371093Q170.6571021118164,227.79161755371092,172.4769021118164,228.26161755371095Q174.1285021118164,228.68761755371094,175.74630211181642,228.13661755371095Q177.3640021118164,227.58461755371093,178.3939021118164,226.24461755371095Q179.5286021118164,224.76761755371092,179.5286021118164,222.90761755371093L179.5286021118164,140.48851755371095C179.5286021118164,136.64601755371095,174.5790021118164,134.98931755371095,172.1986021118164,138.03511755371093Z" fill-rule="evenodd" fill="url(#master_svg3_152_07115)" fill-opacity="1"/></g><g><path d="M169.30638885498047,209.76998360290526C169.30638885498047,209.81368360290526,169.30662991398046,209.85738360290526,169.30711202298048,209.90108360290526L169.48838885498046,226.32988360290528Q170.65712885498047,227.79138360290528,172.47686885498047,228.26128360290528Q174.12851885498046,228.68768360290528,175.74627885498046,228.13628360290528Q177.36403885498046,227.58488360290528,178.39391885498046,226.2444836029053Q179.52858885498046,224.7675836029053,179.52858885498046,222.90778360290528L179.52858885498046,145.38608360290527L169.30638885498047,158.56538360290529L169.30638885498047,209.76998360290526Z" fill="url(#master_svg4_152_07111)" fill-opacity="1"/></g><g><path d="M130.97310304641724,161.9007247062683L137.47732304641724,170.0341247062683L175.90510304641725,121.98115470626831C177.30170304641723,120.23469470626831,176.99530304641723,117.70464470626831,175.22080304641725,116.3301147062683L173.61420304641723,115.08571670626831C171.83970304641724,113.71119070626831,169.26890304641722,114.01269970626831,167.87230304641724,115.7591547062683L130.97310304641724,161.9007247062683Z" fill="url(#master_svg5_152_07107)" fill-opacity="1"/></g></g></g><g><path d="M8.578125,165.40913051757812L12.812525,156.79973051757813L26.468725,156.79973051757813L27.828125,165.40913051757812L36.390625,165.40913051757812L29.640625,127.59663051757812L19.343725,127.59663051757812L0.000005000000000032756,165.40913051757812L8.578125,165.40913051757812ZM15.890625,150.54973051757813L22.937525,136.25283051757813L23.234425,136.25283051757813L25.484425,150.54973051757813L15.890625,150.54973051757813ZM52.446925,127.59663051757812L44.587525,127.59663051757812L38.306225,165.40913051757812L46.181225,165.40913051757812L52.446925,127.59663051757812ZM62.565625,165.97163051757812C71.081225,165.97163051757812,77.346925,160.14353051757814,78.800025,151.45603051757814C80.221925,142.62783051757813,75.831225,136.69033051757813,67.190625,136.69033051757813C58.612525,136.69033051757813,52.346925,142.50283051757813,50.940625,151.22163051757812C49.487525,160.01853051757814,53.878125,165.97163051757812,62.565625,165.97163051757812ZM63.331225,159.87783051757813C59.440625,159.87783051757813,58.065625,156.29973051757813,58.862525,151.42473051757813C59.675025,146.42473051757813,62.409425,142.69033051757813,66.393725,142.69033051757813C70.268725,142.69033051757813,71.643725,146.28413051757812,70.862525,151.17473051757813C70.034425,156.19033051757813,67.300025,159.87783051757813,63.331225,159.87783051757813ZM110.278625,137.04973051757813L101.653625,137.04973051757813L92.403125,157.34663051757812L92.106225,157.34663051757812L89.590625,137.04973051757813L81.575025,137.04973051757813L86.778125,165.40913051757812L95.637525,165.40913051757812L110.278625,137.04973051757813ZM114.521625,165.95603051757814C118.709625,165.95603051757814,121.740625,164.12783051757813,123.553625,161.48723051757813L123.771625,161.48723051757813L123.099625,165.40913051757812L130.568625,165.40913051757812L133.756625,146.28413051757812C134.865625,139.53413051757812,129.599625,136.69033051757813,123.334625,136.69033051757813C116.521625,136.69033051757813,111.474625,139.94033051757813,109.553625,145.11223051757813L116.724625,145.7060305175781C117.568625,143.81533051757813,119.584625,142.42473051757813,122.381625,142.42473051757813C125.037625,142.42473051757813,126.303625,143.78413051757812,125.928625,146.11223051757813L125.928625,146.22163051757812C125.599625,148.01853051757814,123.584625,148.26853051757814,118.615625,148.76853051757814C112.912625,149.28413051757812,107.584625,151.17473051757813,106.506625,157.50283051757813C105.584625,163.09663051757812,109.131625,165.95603051757814,114.521625,165.95603051757814ZM117.678625,160.51853051757814C115.224625,160.51853051757814,113.724625,159.37783051757813,114.053625,157.23723051757813C114.412625,155.01853051757814,116.459625,153.94033051757813,119.303625,153.54973051757813C121.021625,153.26853051757814,123.912625,152.89353051757814,124.928625,152.26853051757814L124.459625,155.28413051757812C123.943625,158.25283051757813,121.131625,160.51853051757814,117.678625,160.51853051757814Z" fill="#333333" fill-opacity="1"/></g></g></svg>
